<svg width="38" height="49" viewBox="0 0 38 49" fill="none" xmlns="http://www.w3.org/2000/svg">
<g opacity="0.7">
<path d="M0.00503721 8.86887L0.00503721 29.2704H5.67747L5.67747 25.6434L14.5254 25.6434V29.2704H20.0895L20.0895 25.6434L38 25.6434V20.4297L20.0895 20.4297C20.0895 13.8091 19.2161 14.7 23.5834 14.7L38 14.7V10.4556C34.2086 10.3801 26.0969 10.4556 21.0596 10.4556C14.5254 10.4556 14.5254 10.4557 14.5254 15.8961V20.4297L5.67747 20.4297L5.67747 9.8C5.67747 4.45455 5.82254 4.45455 10.9182 4.45455L38 4.45455V0.028215L9.68528 0.028215C-0.539162 0.028215 0.00503721 -0.967337 0.00503721 8.86887Z" fill="#2F1818"/>
<path d="M14.451 37.6697L14.451 33.1186H20.0895V37.6697H14.451Z" fill="#2F1818"/>
<path d="M0.0050354 37.6697L0.0050354 33.1186H5.67747L5.67747 37.6697H0.0050354Z" fill="#2F1818"/>
<path d="M5.67747 45.1209L5.67747 41.557H0.0050354L0.0050354 45.1209C0.0050354 46.9141 1.29132 49 3.12181 49H16.5957C18.5251 49 20.0895 46.9163 20.0895 45.1209V41.557L14.5005 41.557V45.0245C14.5005 45.1016 14.4345 45.1209 14.4016 45.1209H7.32698H5.67747Z" fill="#2F1818"/>
</g>
</svg>
