<svg width="175" height="175" viewBox="0 0 175 175" fill="none" xmlns="http://www.w3.org/2000/svg">
<g clip-path="url(#clip0_208_4)">
<path d="M173.145 73.9098C172.732 71.1878 170.855 68.9168 168.264 67.9978L154.537 63.1168C153.725 60.8168 152.804 58.5808 151.783 56.4178L158.03 43.2718C159.209 40.7928 158.929 37.8608 157.301 35.6438C152.036 28.4828 145.745 22.1918 138.603 16.9508C136.384 15.3218 133.462 15.0448 130.978 16.2268L117.84 22.4688C115.677 21.4478 113.438 20.5288 111.136 19.7168L106.253 5.98776C105.334 3.40176 103.069 1.52976 100.353 1.11176C90.703 -0.371238 83.561 -0.371238 73.896 1.11176C71.183 1.52976 68.915 3.40176 67.996 5.98776L63.113 19.7168C60.811 20.5288 58.572 21.4478 56.411 22.4688L43.268 16.2268C40.789 15.0458 37.862 15.3228 35.645 16.9508C28.503 22.1918 22.212 28.4828 16.947 35.6438C15.318 37.8608 15.039 40.7918 16.218 43.2718L22.465 56.4178C21.444 58.5768 20.525 60.8178 19.711 63.1168L5.98203 68.0028C3.39303 68.9218 1.51903 71.1918 1.10303 73.9098C0.354028 78.8298 0.00402832 83.0248 0.00402832 87.1288C0.00402832 91.2268 0.354028 95.4278 1.10303 100.348C1.51603 103.07 3.39303 105.341 5.98403 106.26L19.711 111.141C20.525 113.445 21.447 115.682 22.465 117.845L16.218 130.986C15.039 133.465 15.319 136.397 16.945 138.609C22.203 145.765 28.494 152.056 35.645 157.307C37.862 158.936 40.789 159.218 43.27 158.031L56.408 151.789C58.571 152.81 60.81 153.729 63.112 154.541L67.995 168.27C68.914 170.856 71.179 172.728 73.895 173.146C78.723 173.89 83.049 174.25 87.123 174.25C91.197 174.25 95.524 173.89 100.351 173.146C103.066 172.728 105.332 170.856 106.251 168.27L111.134 154.541C113.436 153.729 115.675 152.81 117.838 151.789L130.976 158.031C133.46 159.217 136.387 158.935 138.604 157.307C145.763 152.047 152.054 145.756 157.302 138.609C158.928 136.397 159.208 133.465 158.029 130.986L151.782 117.845C152.803 115.682 153.724 113.44 154.536 111.141L168.263 106.26C170.854 105.341 172.731 103.071 173.144 100.348C173.893 95.4278 174.243 91.2278 174.243 87.1288C174.243 83.0298 173.894 78.8288 173.145 73.9098ZM158.949 93.7198L146.071 98.2998C143.82 99.0968 142.089 100.925 141.411 103.22C140.261 107.109 138.747 110.789 136.907 114.163C135.765 116.263 135.694 118.782 136.72 120.94L142.561 133.225C139.739 136.614 136.618 139.74 133.224 142.559L120.941 136.725C118.78 135.689 116.269 135.772 114.166 136.91C110.787 138.748 107.105 140.26 103.213 141.412C100.923 142.088 99.095 143.818 98.296 146.069L93.714 158.952C89.037 159.428 85.211 159.428 80.534 158.952L75.952 146.069C75.152 143.823 73.324 142.087 71.035 141.412C67.141 140.26 63.456 138.748 60.082 136.91C57.979 135.763 55.463 135.69 53.307 136.725L41.024 142.564C37.633 139.739 34.512 136.618 31.687 133.225L37.528 120.94C38.554 118.781 38.483 116.263 37.341 114.163C35.506 110.799 33.991 107.114 32.837 103.215C32.159 100.925 30.426 99.0968 28.177 98.2998L15.299 93.7198C15.056 91.3768 14.939 89.2178 14.939 87.1278C14.939 85.0378 15.056 82.8838 15.299 80.5408L28.18 75.9568C30.428 75.1598 32.159 73.3318 32.837 71.0418C33.989 67.1528 35.504 63.4678 37.341 60.0888C38.483 57.9938 38.554 55.4698 37.528 53.3168L31.687 41.0318C34.514 37.6388 37.635 34.5128 41.024 31.6928L53.312 37.5318C55.463 38.5678 57.989 38.4848 60.087 37.3468C63.459 35.5088 67.141 33.9968 71.035 32.8448C73.325 32.1688 75.153 30.4338 75.952 28.1878L80.534 15.3048C85.167 14.8238 89 14.8238 93.714 15.3048L98.296 28.1878C99.096 30.4338 100.924 32.1698 103.213 32.8448C107.107 33.9968 110.792 35.5088 114.166 37.3468C116.269 38.4938 118.78 38.5668 120.941 37.5318L133.224 31.6928C136.613 34.5128 139.734 37.6388 142.561 41.0318L136.72 53.3168C135.694 55.4708 135.765 57.9938 136.907 60.0888C138.75 63.4778 140.264 67.1578 141.411 71.0368C142.089 73.3318 143.82 75.1598 146.071 75.9568L158.949 80.5368C159.192 82.8798 159.309 85.0388 159.309 87.1288C159.309 89.2188 159.192 91.3768 158.949 93.7198Z" fill="white"/>
<path d="M87.124 50.8018C68.062 50.8018 52.553 66.3098 52.553 85.3728C52.553 104.436 68.061 119.944 87.124 119.944C106.187 119.944 121.695 104.436 121.695 85.3728C121.695 66.3098 106.186 50.8018 87.124 50.8018ZM87.124 105.009C76.297 105.009 67.488 96.1998 67.488 85.3728C67.488 74.5458 76.297 65.7368 87.124 65.7368C97.951 65.7368 106.76 74.5458 106.76 85.3728C106.76 96.1998 97.951 105.009 87.124 105.009Z" fill="white"/>
</g>
<defs>
<clipPath id="clip0_208_4">
<rect width="174.248" height="174.248" fill="white"/>
</clipPath>
</defs>
</svg>
